<?xml version="1.0"?>
<svg version="1.1" xmlns="http://www.w3.org/2000/svg" width="800px" height="200px" style=""><path fill="#a732c7" d="M143.864,190.117c0,1.368-1.026,2.223-2.736,2.223l-17.1,0c-4.104,0-5.985-1.368-8.208-4.275l-36.936-47.367l-0.342,0l0,47.367c0,3.078-1.197,4.275-4.104,4.275l-13.68,0c-3.078,0-4.275-1.197-4.275-4.275l0-109.953c0-2.907,1.539-4.104,4.275-4.104l13.68,0c2.736,0,4.104,1.026,4.104,4.104l0,48.393l0.342,0l35.226-49.419c1.539-2.052,3.591-3.078,6.327-3.078l13.68,0c1.71,0,2.736,1.026,2.736,2.223c0,0.684-0.171,1.368-0.684,2.052l-39.33,52.839l45.486,55.917c0.855,1.026,1.539,2.223,1.539,3.078z M214.5725,84.781c0,2.736-1.197,3.591-3.591,3.591l-9.747,0l0,89.604l9.234,0c2.394,0,3.591,1.539,3.591,3.591l0,7.353c0,2.052-0.855,3.42-3.078,3.42l-40.698,0c-2.223,0-3.42-1.368-3.42-3.249l0-7.695c0-2.394,1.026-3.42,3.42-3.42l9.063,0l0-89.604l-9.918,0c-2.394,0-3.42-1.197-3.42-3.42l0-7.524c0-1.881,1.026-3.42,3.078-3.42l41.895,0c2.394,0,3.591,1.539,3.591,3.249l0,7.524z M324.953,111.286c0,26.505-20.007,39.501-45.144,39.501c-1.368,0-9.063-0.342-10.26-0.513l0,37.962c0,2.565-1.026,4.104-4.275,4.104l-13.68,0c-2.736,0-4.104-1.197-4.104-4.617l0-109.098c0-3.42,1.026-4.617,4.275-4.617l24.795,0c18.126,0,31.464,3.42,39.843,12.996c5.472,6.327,8.55,15.048,8.55,24.282z M302.723,112.141c0-15.561-9.576-21.033-24.282-21.033l-8.892,0l0,42.408c1.368,0,9.063,0.171,10.089,0.171c14.535,0,23.085-6.84,23.085-21.546z M425.7575,157.798c0,23.769-19.323,36.594-41.553,36.594c-10.26,0-22.401-1.881-32.661-5.472c-2.223-0.855-2.907-1.881-2.907-3.249c0-0.684,0-1.368,0.342-2.223l3.591-11.115c0.513-1.71,1.368-2.736,3.078-2.736c0.684,0,1.539,0.171,2.565,0.513c8.037,2.907,16.929,5.13,25.479,5.13c9.234,0,19.665-4.446,19.665-15.219c0-7.866-5.814-12.141-12.483-15.39l-22.23-11.115c-12.141-5.985-20.178-16.074-20.178-29.412c0-20.862,20.52-32.319,39.501-32.319c11.286,0,20.691,1.71,30.609,5.985c2.223,1.026,3.42,2.052,3.42,3.42c0,0.684-0.171,1.368-0.513,2.223l-4.104,10.431c-0.684,1.881-1.71,2.565-2.907,2.565c-0.855,0-1.71-0.342-2.736-0.684c-7.011-2.907-15.732-5.301-22.572-5.301c-8.037,0-17.271,3.42-17.271,12.996c0,7.011,6.498,11.115,12.141,13.851l18.981,9.234c13.509,6.498,22.743,15.561,22.743,31.293z M553.922,139.843c0,35.226-16.587,54.549-49.932,54.549c-36.081,0-49.248-19.836-49.248-54.891l0-61.389c0-2.907,1.71-4.104,4.446-4.104l13.509,0c2.907,0,4.104,1.197,4.104,4.104l0,59.508c0,25.137,6.498,38.133,28.044,38.133c20.691,0,27.189-13.68,27.189-38.133l0-59.508c0-2.907,1.539-4.104,4.275-4.104l13.509,0c2.907,0,4.104,1.197,4.104,4.104l0,61.731z"/><path fill="#" d=""/></svg>
